<?xml version="1.0" encoding="UTF-8"?>
<svg width="238px" height="73px" viewBox="0 0 238 73" version="1.1" xmlns="http://www.w3.org/2000/svg" xmlns:xlink="http://www.w3.org/1999/xlink">
    <!-- Generator: Sketch 48.2 (47327) - http://www.bohemiancoding.com/sketch -->
    <title>Untitled</title>
    <desc>Created with Sketch.</desc>
    <defs></defs>
    <g id="Page-1" stroke="none" stroke-width="1" fill="none" fill-rule="evenodd">
        <path d="M71.152,6.752 C66.8319784,6.752 64.672,7.85598896 64.672,10.064 L64.672,48.512 C64.672,50.720011 66.8319784,51.824 71.152,51.824 L71.152,56 L47.536,56 L47.536,51.824 C51.8080214,51.824 53.944,50.720011 53.944,48.512 L53.944,10.784 L38.176,56 L28.816,56 L13.048,10.784 L13.048,48.512 C13.048,50.720011 15.1839786,51.824 19.456,51.824 L19.456,56 L0.664,56 L0.664,51.824 C4.93602136,51.824 7.072,50.720011 7.072,48.512 L7.072,10.064 C7.072,7.85598896 4.93602136,6.752 0.664,6.752 L0.664,2.504 L22.12,2.504 L36.376,44.552 L50.632,2.504 L71.152,2.504 L71.152,6.752 Z M86.632,37.136 C86.7280005,42.0800247 87.6399914,45.8839867 89.368,48.548 C91.0960086,51.2120133 93.7119825,52.544 97.216,52.544 C99.9520137,52.544 102.375989,51.8720067 104.488,50.528 C106.600011,49.1839933 108.063996,47.0000151 108.88,43.976 L113.344,44.84 C112.911998,46.4240079 112.276004,47.9599926 111.436,49.448 C110.595996,50.9360074 109.504007,52.2559942 108.16,53.408 C106.815993,54.5600058 105.196009,55.4839965 103.3,56.18 C101.403991,56.8760035 99.1840127,57.224 96.64,57.224 C94.1439875,57.224 91.7200118,56.924003 89.368,56.324 C87.0159882,55.723997 84.9160092,54.6800074 83.068,53.192 C81.2199908,51.7039926 79.7320056,49.7000126 78.604,47.18 C77.4759944,44.6599874 76.912,41.4800192 76.912,37.64 C76.912,34.7119854 77.3559956,32.0360121 78.244,29.612 C79.1320044,27.1879879 80.4159916,25.1120086 82.096,23.384 C83.7760084,21.6559914 85.8279879,20.3120048 88.252,19.352 C90.6760121,18.3919952 93.4479844,17.912 96.568,17.912 C108.66406,17.912 114.712,24.3199359 114.712,37.136 L86.632,37.136 Z M105.784,33.32 C105.784,31.7359921 105.592002,30.2600068 105.208,28.892 C104.823998,27.5239932 104.248004,26.3240052 103.48,25.292 C102.711996,24.2599948 101.764006,23.444003 100.636,22.844 C99.5079944,22.243997 98.2000074,21.944 96.712,21.944 C94.119987,21.944 91.9120091,22.8319911 90.088,24.608 C88.2639909,26.3840089 87.1600019,29.2879798 86.776,33.32 L105.784,33.32 Z M136.384,48.656 C136.384,50.8160108 138.471979,51.896 142.648,51.896 L142.648,56 L120.328,56 L120.328,51.896 C124.456021,51.896 126.52,50.8160108 126.52,48.656 L126.52,7.904 C126.52,5.7439892 124.456021,4.664 120.328,4.664 L120.328,0.56 L136.384,0.56 L136.384,48.656 Z M160.216,25.256 C161.416006,22.8079878 163.239988,20.9960059 165.688,19.82 C168.136012,18.6439941 171.087983,18.056 174.544,18.056 C176.896012,18.056 179.127989,18.4159964 181.24,19.136 C183.352011,19.8560036 185.211992,21.0079921 186.82,22.592 C188.428008,24.1760079 189.699995,26.2039876 190.636,28.676 C191.572005,31.1480124 192.04,34.1359825 192.04,37.64 C192.04,41.240018 191.512005,44.2879875 190.456,46.784 C189.399995,49.2800125 187.996009,51.3079922 186.244,52.868 C184.491991,54.4280078 182.488011,55.5679964 180.232,56.288 C177.975989,57.0080036 175.648012,57.368 173.248,57.368 C170.895988,57.368 168.74801,57.0560031 166.804,56.432 C164.85999,55.8079969 163.336006,54.9200058 162.232,53.768 L162.232,65.72 C162.232,67.8800108 164.847974,68.96 170.08,68.96 L170.08,72.992 L146.104,72.992 L146.104,68.96 C150.280021,68.96 152.368,67.8800108 152.368,65.72 L152.368,26.768 C152.368,24.559989 150.280021,23.456 146.104,23.456 L146.104,19.352 L159.64,19.352 L160.216,25.256 Z M171.52,23.312 C169.647991,23.312 168.064006,23.6719964 166.768,24.392 C165.471994,25.1120036 164.428004,26.1079936 163.636,27.38 C162.843996,28.6520064 162.280002,30.187991 161.944,31.988 C161.607998,33.788009 161.44,35.7679892 161.44,37.928 C161.44,40.0880108 161.607998,42.067991 161.944,43.868 C162.280002,45.668009 162.843996,47.2039936 163.636,48.476 C164.428004,49.7480064 165.471994,50.7439964 166.768,51.464 C168.064006,52.1840036 169.647991,52.544 171.52,52.544 C173.392009,52.544 174.999993,52.1840036 176.344,51.464 C177.688007,50.7439964 178.791996,49.7480064 179.656,48.476 C180.520004,47.2039936 181.143998,45.668009 181.528,43.868 C181.912002,42.067991 182.104,40.0880108 182.104,37.928 C182.104,35.7679892 181.912002,33.788009 181.528,31.988 C181.143998,30.187991 180.520004,28.6520064 179.656,27.38 C178.791996,26.1079936 177.688007,25.1120036 176.344,24.392 C174.999993,23.6719964 173.392009,23.312 171.52,23.312 Z M237.4,37.496 C237.4,43.7840314 235.672017,48.6439828 232.216,52.076 C228.759983,55.5080172 223.744033,57.224 217.168,57.224 C214.575987,57.224 212.104012,56.924003 209.752,56.324 C207.399988,55.723997 205.348009,54.6920073 203.596,53.228 C201.843991,51.7639927 200.440005,49.8200121 199.384,47.396 C198.327995,44.9719879 197.8,41.960018 197.8,38.36 C197.8,31.7839671 199.455983,26.7320176 202.768,23.204 C206.080017,19.6759824 211.143966,17.912 217.96,17.912 C220.600013,17.912 223.107988,18.2359968 225.484,18.884 C227.860012,19.5320032 229.923991,20.6119924 231.676,22.124 C233.428009,23.6360076 234.819995,25.6399875 235.852,28.136 C236.884005,30.6320125 237.4,33.7519813 237.4,37.496 Z M217.888,22.664 C214.287982,22.664 211.672008,23.8279884 210.04,26.156 C208.407992,28.4840116 207.592,31.8319782 207.592,36.2 C207.592,39.4640163 207.807998,42.1519894 208.24,44.264 C208.672002,46.3760106 209.307996,48.0439939 210.148,49.268 C210.988004,50.4920061 211.995994,51.3439976 213.172,51.824 C214.348006,52.3040024 215.703992,52.544 217.24,52.544 C221.032019,52.544 223.695992,51.2720127 225.232,48.728 C226.768008,46.1839873 227.536,42.5840233 227.536,37.928 C227.536,34.9039849 227.308002,32.4080098 226.852,30.44 C226.395998,28.4719902 225.736004,26.9120058 224.872,25.76 C224.007996,24.6079942 222.988006,23.8040023 221.812,23.348 C220.635994,22.8919977 219.328007,22.664 217.888,22.664 Z" id="Melpo" fill="#FFFFFF"></path>
    </g>
</svg>